<?xml version="1.0" encoding="UTF-8" standalone="no"?>
<!-- Created with Inkscape (http://www.inkscape.org/) -->

<svg
   width="210mm"
   height="297mm"
   viewBox="0 0 210 297"
   version="1.1"
   id="svg5"
   inkscape:version="1.2.1 (9c6d41e410, 2022-07-14)"
   sodipodi:docname="verified.svg"
   xml:space="preserve"
   inkscape:export-filename="verified16.png"
   inkscape:export-xdpi="4.8000197"
   inkscape:export-ydpi="4.8000197"
   xmlns:inkscape="http://www.inkscape.org/namespaces/inkscape"
   xmlns:sodipodi="http://sodipodi.sourceforge.net/DTD/sodipodi-0.dtd"
   xmlns="http://www.w3.org/2000/svg"
   xmlns:svg="http://www.w3.org/2000/svg"><sodipodi:namedview
     id="namedview7"
     pagecolor="#ffffff"
     bordercolor="#666666"
     borderopacity="1.0"
     inkscape:showpageshadow="2"
     inkscape:pageopacity="0.0"
     inkscape:pagecheckerboard="0"
     inkscape:deskcolor="#d1d1d1"
     inkscape:document-units="mm"
     showgrid="false"
     inkscape:zoom="1.1691467"
     inkscape:cx="303.21259"
     inkscape:cy="527.73531"
     inkscape:current-layer="layer1"><inkscape:grid
       type="xygrid"
       id="grid346" /></sodipodi:namedview><defs
     id="defs2" /><g
     inkscape:label="Layer 1"
     inkscape:groupmode="layer"
     id="layer1"><path
       id="path348"
       style="font-variation-settings:normal;opacity:1;fill:#1d9bf0;fill-opacity:1;fill-rule:evenodd;stroke:none;stroke-width:0.312689px;stroke-linecap:butt;stroke-linejoin:miter;stroke-miterlimit:4;stroke-dasharray:none;stroke-dashoffset:0;stroke-opacity:1;stop-color:#000000;stop-opacity:1"
       d="m 89.958984,78.668329 a 42.333332,42.333332 0 0 0 -7.9375,0.780831 v 8.095113 a 34.395828,34.395828 0 0 0 -10.098091,4.196126 l -5.752621,-5.75262 A 42.333332,42.333332 0 0 0 54.945102,97.21345 l 5.752619,5.75262 a 34.395828,34.395828 0 0 0 -4.196126,10.09809 h -8.095113 a 42.333332,42.333332 0 0 0 -0.780831,7.9375 42.333332,42.333332 0 0 0 0.780831,7.9375 h 8.095113 a 34.395828,34.395828 0 0 0 4.196126,10.09809 l -5.752619,5.75263 a 42.333332,42.333332 0 0 0 11.22567,11.22567 l 5.752621,-5.75262 a 34.395828,34.395828 0 0 0 10.098091,4.19612 v 8.09512 a 42.333332,42.333332 0 0 0 7.9375,0.78083 42.333332,42.333332 0 0 0 7.9375,-0.78083 v -8.09512 a 34.395828,34.395828 0 0 0 10.098086,-4.19612 l 5.75263,5.75262 a 42.333332,42.333332 0 0 0 11.22567,-11.22567 l -5.75262,-5.75263 a 34.395828,34.395828 0 0 0 4.19612,-10.09809 h 8.09512 a 42.333332,42.333332 0 0 0 0.78083,-7.9375 42.333332,42.333332 0 0 0 -0.75396,-7.9375 h -8.11269 a 34.395828,34.395828 0 0 0 -4.19095,-10.11307 l 5.73866,-5.738157 A 42.333332,42.333332 0 0 0 113.74771,85.987262 l -5.73867,5.738668 A 34.395828,34.395828 0 0 0 97.896484,87.534971 v -8.112683 a 42.333332,42.333332 0 0 0 -7.9375,-0.753959 z" /><path
       style="color:#000000;fill:#ffffff;stroke-width:1.59211;stroke-linecap:round;stroke-linejoin:round;-inkscape-stroke:none"
       d="m 108.91504,103.58841 a 4.7763318,4.7763318 0 0 0 -3.377,1.39932 l -21.897746,21.89775 -9.260361,-9.26037 a 4.7763318,4.7763318 0 0 0 -6.754031,0 4.7763318,4.7763318 0 0 0 0,6.75403 l 12.637378,12.63738 a 4.7768094,4.7768094 0 0 0 6.75403,0 l 25.27476,-25.27475 a 4.7763318,4.7763318 0 0 0 0,-6.75404 4.7763318,4.7763318 0 0 0 -3.37703,-1.39932 z"
       id="path485" /></g></svg>
